<svg width="27" height="28" viewBox="0 0 27 28" fill="none" xmlns="http://www.w3.org/2000/svg">
<path fill-rule="evenodd" clip-rule="evenodd" d="M0.000315602 27.0205C0.000105362 26.9989 0 26.9771 0 26.9554C0 23.6497 2.43951 20.9137 5.61645 20.4497C2.44387 20.0142 0 17.2927 0 14.0005C0 10.4051 2.91463 7.49047 6.51 7.49047H6.5751C2.9655 7.49047 0.0352475 4.58182 0.000315602 0.980469H26.0397C26.0047 4.58182 23.0746 7.49047 19.4649 7.49047H19.53C23.1254 7.49047 26.04 10.4051 26.04 14.0005C26.04 17.2927 23.5962 20.0142 20.4236 20.4497C23.6005 20.9137 26.04 23.6497 26.04 26.9554C26.04 26.9771 26.0399 26.9989 26.0397 27.0205H0.000315602Z" fill="#0044FE"/>
</svg>
