<svg width="92" height="29" viewBox="0 0 92 29" fill="none" xmlns="http://www.w3.org/2000/svg">
<g clip-path="url(#clip0_10087_6008)">
<g clip-path="url(#clip1_10087_6008)">
<mask id="mask0_10087_6008" style="mask-type:luminance" maskUnits="userSpaceOnUse" x="0" y="1" width="27" height="27">
<path d="M26.2374 1.39453H0.0249023V27.607H26.2374V1.39453Z" fill="white"/>
</mask>
<g mask="url(#mask0_10087_6008)">
<path fill-rule="evenodd" clip-rule="evenodd" d="M0.02522 27.607C0.0250084 27.5852 0.0249023 27.5634 0.0249023 27.5415C0.0249023 24.2139 2.48057 21.4598 5.67855 20.9927C2.48496 20.5543 0.0249023 17.8148 0.0249023 14.5008C0.0249023 10.8816 2.95884 7.94765 6.57802 7.94765H6.64355C3.01004 7.94765 0.0603833 5.01973 0.02522 1.39453H26.2371C26.2019 5.01973 23.2523 7.94765 19.6187 7.94765H19.6843C23.3034 7.94765 26.2374 10.8816 26.2374 14.5008C26.2374 17.8148 23.7773 20.5543 20.5837 20.9927C23.7817 21.4598 26.2374 24.2139 26.2374 27.5415C26.2374 27.5634 26.2372 27.5852 26.2371 27.607H0.02522Z" fill="#0044FE"/>
</g>
</g>
<path d="M49.0247 27.0144L46.6918 23.6855L49.4966 22.9515L52.4061 26.962V27.0144H49.0247ZM44.2803 24.2097C42.8473 24.2097 41.6678 24.1311 40.7416 23.9738C39.8154 23.799 39.0815 23.5107 38.5397 23.1088C37.998 22.7069 37.6048 22.1564 37.3602 21.4574C37.1155 20.7584 36.9583 19.8846 36.8884 18.8361C36.8185 17.7702 36.7835 16.4858 36.7835 14.9829C36.7835 13.4801 36.8185 12.2044 36.8884 11.1559C36.9583 10.0899 37.1155 9.20743 37.3602 8.50843C37.6048 7.80943 37.998 7.25897 38.5397 6.85704C39.0815 6.45512 39.8154 6.17552 40.7416 6.01824C41.6678 5.84349 42.8473 5.75612 44.2803 5.75612C45.7132 5.75612 46.8928 5.84349 47.819 6.01824C48.7626 6.17552 49.5053 6.45512 50.047 6.85704C50.5887 7.25897 50.9819 7.80943 51.2266 8.50843C51.4887 9.20743 51.6547 10.0899 51.7246 11.1559C51.7945 12.2044 51.8295 13.4801 51.8295 14.9829C51.8295 16.4858 51.7945 17.7702 51.7246 18.8361C51.6547 19.8846 51.4887 20.7584 51.2266 21.4574C50.9819 22.1564 50.5887 22.7069 50.047 23.1088C49.5053 23.5107 48.7626 23.799 47.819 23.9738C46.8928 24.1311 45.7132 24.2097 44.2803 24.2097ZM44.2803 21.6933C45.154 21.6933 45.8705 21.6671 46.4297 21.6147C47.0064 21.5622 47.452 21.4312 47.7665 21.2215C48.0986 21.0118 48.3432 20.671 48.5005 20.1992C48.6578 19.7099 48.7539 19.0546 48.7888 18.2333C48.8413 17.3945 48.8675 16.311 48.8675 14.9829C48.8675 13.6548 48.8413 12.5801 48.7888 11.7588C48.7539 10.92 48.6578 10.2647 48.5005 9.79284C48.3432 9.30354 48.0986 8.95404 47.7665 8.74434C47.452 8.53464 47.0064 8.40358 46.4297 8.35115C45.8705 8.29873 45.154 8.27252 44.2803 8.27252C43.424 8.27252 42.7163 8.29873 42.1571 8.35115C41.5979 8.40358 41.1523 8.53464 40.8202 8.74434C40.4882 8.95404 40.2436 9.30354 40.0863 9.79284C39.9465 10.2647 39.8504 10.92 39.7979 11.7588C39.763 12.5801 39.7455 13.6548 39.7455 14.9829C39.7455 16.311 39.763 17.3945 39.7979 18.2333C39.8504 19.0546 39.9465 19.7099 40.0863 20.1992C40.2436 20.671 40.4882 21.0118 40.8202 21.2215C41.1523 21.4312 41.5979 21.5622 42.1571 21.6147C42.7163 21.6671 43.424 21.6933 44.2803 21.6933ZM54.9552 24V5.96582H58.992L64.2869 19.0721H64.4179L69.7129 5.96582H73.7496V24H70.8924V10.553H70.7876L65.3354 24H63.2384L57.8386 10.553H57.7338V24H54.9552ZM83.6238 24.2097C82.9773 24.2097 82.2608 24.1922 81.4744 24.1573C80.7055 24.1223 79.9453 24.0699 79.1939 24C78.46 23.9476 77.7872 23.8864 77.1756 23.8165V21.3788C77.8047 21.4312 78.46 21.4836 79.1415 21.536C79.8405 21.5885 80.5045 21.6321 81.1336 21.6671C81.7627 21.6846 82.3045 21.6933 82.7588 21.6933C83.685 21.6933 84.4102 21.6496 84.9345 21.5622C85.4587 21.4749 85.8781 21.3351 86.1927 21.1428C86.4024 21.003 86.5509 20.8283 86.6383 20.6186C86.7431 20.4089 86.8043 20.1642 86.8218 19.8846C86.8567 19.5876 86.8742 19.2643 86.8742 18.9148C86.8742 18.443 86.8567 18.0498 86.8218 17.7352C86.7868 17.4207 86.7082 17.176 86.5858 17.0013C86.4635 16.8265 86.2713 16.7042 86.0092 16.6343C85.747 16.5469 85.4063 16.477 84.9869 16.4246L80.688 15.9266C79.8492 15.8217 79.159 15.647 78.6173 15.4023C78.093 15.1402 77.6823 14.7994 77.3853 14.38C77.1057 13.9606 76.9134 13.4626 76.8086 12.8859C76.7037 12.3092 76.6513 11.6714 76.6513 10.9724C76.6513 9.80158 76.8086 8.8754 77.1231 8.19388C77.4377 7.51236 77.8833 6.99684 78.46 6.64734C79.0541 6.28037 79.7531 6.04446 80.557 5.93961C81.3608 5.81728 82.252 5.75612 83.2306 5.75612C83.9122 5.75612 84.6112 5.78233 85.3276 5.83476C86.0441 5.86971 86.7169 5.92213 87.346 5.99203C87.9926 6.04446 88.5256 6.12309 88.945 6.22794V8.61328C88.5081 8.54338 87.9926 8.48222 87.3984 8.42979C86.8218 8.37737 86.2189 8.34242 85.5898 8.32494C84.9607 8.28999 84.3753 8.27252 83.8335 8.27252C82.9248 8.27252 82.1909 8.3162 81.6317 8.40358C81.09 8.47348 80.6706 8.5958 80.3735 8.77055C80.024 8.96278 79.8143 9.23364 79.7444 9.58314C79.6745 9.91517 79.6395 10.3346 79.6395 10.8413C79.6395 11.4355 79.6745 11.8986 79.7444 12.2306C79.8318 12.5451 80.0152 12.7636 80.2948 12.8859C80.5919 13.0082 81.0375 13.1043 81.6317 13.1742L85.9305 13.6723C86.4723 13.7247 86.9616 13.8121 87.3984 13.9344C87.8353 14.0393 88.2198 14.2227 88.5518 14.4849C88.9013 14.747 89.1721 15.1227 89.3644 15.612C89.4867 15.8567 89.5741 16.1363 89.6265 16.4508C89.6964 16.7654 89.7488 17.1149 89.7838 17.4993C89.8362 17.8663 89.8624 18.2857 89.8624 18.7575C89.8624 19.7536 89.7576 20.5836 89.5479 21.2477C89.3556 21.9117 89.076 22.4447 88.7091 22.8467C88.3596 23.2311 87.9227 23.5282 87.3984 23.7379C86.8742 23.9301 86.2975 24.0524 85.6684 24.1048C85.0393 24.1747 84.3578 24.2097 83.6238 24.2097Z" fill="#1D1D1D"/>
</g>
<defs>
<clipPath id="clip0_10087_6008">
<rect width="91.95" height="29" fill="white" transform="translate(0.0249023)"/>
</clipPath>
<clipPath id="clip1_10087_6008">
<rect width="26.2125" height="26.2125" fill="white" transform="translate(0.0249023 1.39453)"/>
</clipPath>
</defs>
</svg>
